# xmcd
#
# Track frame offsets:
#	150
#	17710
#	31432
#	45735
#	62217
#	79192
#	93985
#	112667
#	131525
#	149707
#	165937
#	182975
#	199587
#	215495
#	231435
#	245032
#	259610
#	276670
#
# Disc length: 3900
#
# Revision: 1
# Processed by: cddbd v1.5.1PL0 Copyright (c) Steve Scherf et al.
# Submitted via: VisiTrax 2.9.5.180 - For more info visit www.synapsa.com
# Normalized: r0:DSETVAR1
#
DISCID=0a0f3a12
DTITLE=Various Artist - CDX 79
DYEAR=1994
DGENRE=
TTITLE0=Cimmaron - Almost
TTITLE1=Turner Nichols - Come saturday night
TTITLE2=Daron Norwood - Cowboys don't cry
TTITLE3=Brother Phelps - Eagle over angel
TTITLE4=Blackhawk - Every once in a while
TTITLE5=Shaver - Georgia on a fast train
TTITLE6=Matt McKinney - Keep one hand on your heart
TTITLE7=Rodney Crowell - Let the picture paint itself
TTITLE8=Collin Raye - Little rock
TTITLE9=Charlie Floyd - Man behind the wheel
TTITLE10=Sade - Please send me someone to love
TTITLE11=Brooks and Dunn - That ain't no way to go
TTITLE12=Lari White - That's my baby
TTITLE13=Reba McEntire - Why haven't I heard from you
TTITLE14=Foster Martin Band - Willy's bar and grill
TTITLE15=Mark Chesnutt - Woman, sensuous woman
TTITLE16=Shenandoah - If Bubba can dance (I can too)
TTITLE17=Not for broadcast - Special announcement
EXTD=
EXTT0=
EXTT1=
EXTT2=
EXTT3=
EXTT4=
EXTT5=
EXTT6=
EXTT7=
EXTT8=
EXTT9=
EXTT10=
EXTT11=
EXTT12=
EXTT13=
EXTT14=
EXTT15=
EXTT16=
EXTT17=
PLAYORDER=
